<?xml version="1.0" standalone="no"?>
<!DOCTYPE svg PUBLIC "-//W3C//DTD SVG 20010904//EN"
 "http://www.w3.org/TR/2001/REC-SVG-20010904/DTD/svg10.dtd">
<svg version="1.0" xmlns="http://www.w3.org/2000/svg"
 width="225.000000pt" height="225.000000pt" viewBox="0 0 225.000000 225.000000"
 preserveAspectRatio="xMidYMid meet">

<g transform="translate(0.000000,225.000000) scale(0.100000,-0.100000)"
fill="#2f8e89" stroke="none">
<path d="M1360 2216 c12 -34 13 -157 0 -211 -9 -38 -7 -42 32 -82 22 -22 56
-49 74 -59 41 -22 42 -33 7 -75 -30 -35 -94 -68 -134 -69 -24 0 -26 -4 -38
-82 -58 -387 -154 -608 -265 -608 -43 0 -101 42 -150 109 -21 28 -41 51 -45
51 -4 0 -15 -8 -24 -17 -14 -16 -13 -26 8 -109 13 -50 31 -106 40 -124 17 -32
16 -34 -1 -47 -16 -12 -15 -13 13 -13 16 0 37 -8 46 -18 14 -16 13 -23 -14
-92 -44 -112 -43 -113 76 -127 209 -26 629 -10 642 24 3 8 -9 52 -27 98 l-32
84 20 43 c11 24 33 82 48 129 l27 87 45 6 c110 15 252 132 350 289 105 169
163 368 131 452 -17 46 -66 75 -127 75 -57 0 -101 -20 -158 -72 l-47 -43 7 34
c36 188 27 287 -29 303 -57 16 -370 77 -428 84 l-58 7 11 -27z m720 -381 c35
-18 45 -56 35 -133 -24 -195 -148 -412 -289 -506 -53 -35 -66 -34 -66 9 0 38
-2 40 -32 24 -11 -6 -21 -9 -23 -7 -3 2 3 26 11 53 8 28 35 121 59 207 47 168
80 231 162 310 59 57 95 68 143 43z"/>
<path d="M449 788 c-19 -47 -95 -117 -155 -145 -34 -15 -83 -28 -122 -31 l-65
-5 49 -25 c141 -72 298 -98 411 -68 66 16 132 46 171 77 l23 17 -150 105 -150
105 -12 -30z"/>
<path d="M955 432 c-91 -32 -222 -40 -285 -18 -24 8 -46 14 -47 12 -8 -8 40
-123 72 -171 93 -140 297 -215 417 -154 57 29 139 114 166 173 13 26 22 50 20
51 -2 2 -27 13 -57 25 -29 11 -85 41 -123 65 -38 25 -74 44 -81 44 -7 -1 -43
-13 -82 -27z"/>
<path d="M1356 409 c-3 -20 -26 -77 -51 -127 -106 -212 -262 -270 -459 -173
-62 30 -123 81 -164 136 l-23 30 15 -30 c24 -51 87 -116 150 -157 81 -52 169
-78 266 -78 192 0 338 95 449 291 l31 56 -42 12 c-24 7 -71 27 -104 45 l-62
33 -6 -38z"/>
</g>
</svg>
