<?xml version="1.0" standalone="no"?>
<!DOCTYPE svg PUBLIC "-//W3C//DTD SVG 20010904//EN"
 "http://www.w3.org/TR/2001/REC-SVG-20010904/DTD/svg10.dtd">
<svg version="1.0" xmlns="http://www.w3.org/2000/svg"
 width="232.000000pt" height="94.000000pt" viewBox="0 0 232.000000 94.000000"
 preserveAspectRatio="xMidYMid meet">

<g transform="translate(0.000000,94.000000) scale(0.100000,-0.100000)"
fill="#000000" stroke="none">
<path d="M122 908 c-30 -15 -38 -52 -18 -83 17 -26 45 -32 77 -15 28 15 26 74
-3 94 -26 18 -25 18 -56 4z"/>
<path d="M968 836 c-2 -48 -2 -86 -1 -86 1 0 22 21 48 48 38 40 45 52 43 82
-3 33 -5 35 -45 38 l-41 3 -4 -85z"/>
<path d="M322 827 c-8 -9 -12 -97 -14 -265 l-3 -252 43 0 42 0 0 190 c0 105 3
190 7 190 4 0 96 -88 204 -196 271 -270 269 -271 269 104 l0 242 -45 0 -45 0
0 -190 c0 -104 -3 -190 -6 -190 -3 0 -94 84 -201 188 -191 183 -227 209 -251
179z"/>
<path d="M1130 795 l0 -44 103 -3 102 -3 3 -217 2 -218 45 0 45 0 0 220 0 220
100 0 100 0 0 45 0 45 -250 0 -250 0 0 -45z"/>
<path d="M1867 803 c-74 -117 -297 -484 -297 -488 0 -3 22 -5 49 -5 l49 0 122
201 c68 110 126 197 130 192 15 -16 110 -175 110 -183 0 -5 -37 -10 -82 -12
-81 -3 -82 -3 -101 -35 l-19 -33 129 0 128 0 38 -65 38 -65 55 0 c30 0 53 3
51 8 -47 82 -313 509 -321 514 -27 18 -56 7 -79 -29z"/>
<path d="M1012 757 l-42 -43 0 -202 0 -202 45 0 45 0 0 245 c0 135 -1 245 -3
245 -2 0 -22 -19 -45 -43z"/>
<path d="M83 728 l-42 -43 0 -105 0 -104 41 -38 c32 -30 39 -41 30 -50 -8 -8
-12 -46 -12 -103 1 -70 3 -86 11 -70 6 11 40 47 75 80 l64 61 0 61 c0 88 -5
98 -40 73 -33 -23 -40 -25 -40 -7 0 19 -105 119 -116 110 -5 -4 10 13 34 38
40 43 43 50 40 93 l-3 47 -42 -43z"/>
<path d="M160 651 c0 -50 3 -56 43 -92 l42 -39 3 47 c3 44 0 49 -42 92 l-46
46 0 -54z"/>
<path d="M310 220 c0 -5 5 -10 11 -10 5 0 7 5 4 10 -3 6 -8 10 -11 10 -2 0 -4
-4 -4 -10z"/>
<path d="M385 219 c-5 -8 -4 -10 3 -5 7 4 12 1 12 -8 0 -9 -7 -16 -15 -16 -8
0 -15 -3 -15 -7 0 -5 11 -8 25 -8 20 0 24 4 19 20 -9 29 -21 39 -29 24z"/>
<path d="M438 200 c2 -16 6 -30 8 -30 2 0 4 14 4 30 0 17 -4 30 -8 30 -5 0 -7
-13 -4 -30z"/>
<path d="M482 200 c0 -19 2 -27 5 -17 2 9 2 25 0 35 -3 9 -5 1 -5 -18z"/>
<path d="M507 223 c-12 -11 -8 -40 8 -53 12 -10 18 -10 30 0 16 13 20 46 7 54
-4 2 -8 -8 -7 -22 0 -18 -5 -27 -15 -27 -10 0 -15 10 -15 28 1 30 1 30 -8 20z"/>
<path d="M571 198 c1 -24 3 -27 6 -10 2 12 9 20 14 17 5 -3 6 1 3 9 -11 27
-24 17 -23 -16z"/>
<path d="M650 219 c0 -5 5 -7 10 -4 6 3 10 8 10 11 0 2 -4 4 -10 4 -5 0 -10
-5 -10 -11z"/>
<path d="M701 209 c0 -15 7 -33 17 -40 15 -12 16 -12 5 1 -6 8 -13 26 -16 40
l-4 25 -2 -26z"/>
<path d="M772 200 c0 -19 2 -27 5 -17 2 9 2 25 0 35 -3 9 -5 1 -5 -18z"/>
<path d="M800 220 c0 -5 5 -10 11 -10 5 0 7 5 4 10 -3 6 -8 10 -11 10 -2 0 -4
-4 -4 -10z"/>
<path d="M862 200 c0 -19 2 -27 5 -17 2 9 2 25 0 35 -3 9 -5 1 -5 -18z"/>
<path d="M895 199 c0 -16 3 -29 8 -29 4 0 7 11 7 24 0 14 -3 27 -7 29 -5 3 -8
-8 -8 -24z"/>
<path d="M991 214 c0 -11 3 -14 6 -6 3 7 2 16 -1 19 -3 4 -6 -2 -5 -13z"/>
<path d="M1072 200 c0 -19 2 -27 5 -17 2 9 2 25 0 35 -3 9 -5 1 -5 -18z"/>
<path d="M1111 200 c0 -25 2 -31 8 -21 7 11 13 12 23 4 10 -9 13 -5 15 18 1
16 -2 29 -7 29 -5 0 -7 -7 -4 -15 4 -9 0 -15 -9 -15 -9 0 -18 8 -20 18 -3 9
-5 1 -6 -18z"/>
<path d="M1215 219 c-5 -8 -4 -10 3 -5 7 4 12 1 12 -8 0 -9 -7 -16 -15 -16 -8
0 -15 -3 -15 -7 0 -5 11 -8 25 -8 20 0 24 4 19 20 -9 29 -21 39 -29 24z"/>
<path d="M1262 210 c0 -14 2 -19 5 -12 2 6 2 18 0 25 -3 6 -5 1 -5 -13z"/>
<path d="M1348 200 c2 -16 6 -30 8 -30 2 0 4 14 4 30 0 17 -4 30 -8 30 -5 0
-7 -13 -4 -30z"/>
<path d="M1422 218 c2 -7 -5 -12 -14 -12 -10 1 -18 -2 -18 -7 0 -5 6 -9 14 -9
8 0 16 -6 19 -12 2 -7 6 -1 9 15 3 15 1 30 -4 33 -4 3 -7 0 -6 -8z"/>
<path d="M1465 219 c-5 -8 -4 -10 3 -5 7 4 12 1 12 -8 0 -9 -7 -16 -15 -16 -8
0 -15 -3 -15 -7 0 -5 11 -8 25 -8 20 0 24 4 19 20 -9 29 -21 39 -29 24z"/>
<path d="M1540 220 c0 -5 5 -10 11 -10 5 0 7 5 4 10 -3 6 -8 10 -11 10 -2 0
-4 -4 -4 -10z"/>
<path d="M1581 214 c0 -11 3 -14 6 -6 3 7 2 16 -1 19 -3 4 -6 -2 -5 -13z"/>
<path d="M1602 200 c0 -19 2 -27 5 -17 2 9 2 25 0 35 -3 9 -5 1 -5 -18z"/>
<path d="M1623 198 c0 -21 1 -24 4 -10 2 12 9 20 14 17 5 -3 6 1 3 9 -10 26
-20 18 -21 -16z"/>
<path d="M1690 215 c0 -8 2 -15 4 -15 2 0 6 7 10 15 3 8 1 15 -4 15 -6 0 -10
-7 -10 -15z"/>
<path d="M1795 220 c3 -5 8 -10 11 -10 2 0 4 5 4 10 0 6 -5 10 -11 10 -5 0 -7
-4 -4 -10z"/>
<path d="M1881 208 c-1 -31 -19 -47 -32 -27 -6 9 -9 10 -9 2 0 -20 21 -26 37
-10 8 8 13 25 10 38 -4 23 -4 22 -6 -3z"/>
<path d="M1918 200 c2 -16 6 -30 8 -30 2 0 4 14 4 30 0 17 -4 30 -8 30 -5 0
-7 -13 -4 -30z"/>
<path d="M2020 200 c0 -16 2 -30 4 -30 2 0 6 14 8 30 3 17 1 30 -4 30 -4 0 -8
-13 -8 -30z"/>
<path d="M2058 200 c2 -16 6 -30 8 -30 2 0 4 14 4 30 0 17 -4 30 -8 30 -5 0
-7 -13 -4 -30z"/>
<path d="M2152 200 c0 -19 2 -27 5 -17 2 9 2 25 0 35 -3 9 -5 1 -5 -18z"/>
<path d="M2190 200 c0 -16 2 -30 4 -30 2 0 6 14 8 30 3 17 1 30 -4 30 -4 0 -8
-13 -8 -30z"/>
<path d="M2252 214 c-7 -8 -8 -14 -3 -14 10 0 25 19 20 25 -2 1 -10 -3 -17
-11z"/>
<path d="M670 199 c0 -6 -7 -9 -15 -5 -8 3 -15 2 -15 -3 0 -5 11 -11 24 -13
19 -4 22 -1 18 14 -5 20 -12 24 -12 7z"/>
<path d="M1778 193 c-4 -14 1 -18 19 -18 12 0 23 6 23 13 0 7 -5 10 -11 6 -6
-3 -15 -1 -19 6 -5 8 -9 6 -12 -7z"/>
<path d="M2090 199 c0 -5 6 -9 14 -9 8 0 17 -6 19 -12 4 -8 6 -7 6 3 1 9 -8
19 -19 22 -11 3 -20 1 -20 -4z"/>
<path d="M826 187 c3 -10 9 -15 12 -12 3 3 0 11 -7 18 -10 9 -11 8 -5 -6z"/>
<path d="M1026 185 c4 -8 8 -15 10 -15 2 0 4 7 4 15 0 8 -4 15 -10 15 -5 0 -7
-7 -4 -15z"/>
<path d="M1566 185 c4 -8 11 -15 16 -15 6 0 5 6 -2 15 -7 8 -14 15 -16 15 -2
0 -1 -7 2 -15z"/>
<path d="M1731 184 c0 -11 3 -14 6 -6 3 7 2 16 -1 19 -3 4 -6 -2 -5 -13z"/>
<path d="M335 180 c3 -5 8 -10 11 -10 2 0 4 5 4 10 0 6 -5 10 -11 10 -5 0 -7
-4 -4 -10z"/>
<path d="M605 180 c3 -5 8 -10 11 -10 2 0 4 5 4 10 0 6 -5 10 -11 10 -5 0 -7
-4 -4 -10z"/>
<path d="M1655 180 c3 -5 8 -10 11 -10 2 0 4 5 4 10 0 6 -5 10 -11 10 -5 0 -7
-4 -4 -10z"/>
<path d="M1690 180 c0 -5 5 -10 11 -10 5 0 7 5 4 10 -3 6 -8 10 -11 10 -2 0
-4 -4 -4 -10z"/>
<path d="M940 166 c7 -7 13 -7 20 0 6 6 3 10 -10 10 -13 0 -16 -4 -10 -10z"/>
<path d="M551 58 c0 -13 3 -17 6 -10 2 6 10 9 16 5 7 -4 6 1 -2 10 -18 22 -21
21 -20 -5z"/>
<path d="M647 65 c-4 -8 -2 -17 3 -20 6 -4 10 3 10 14 0 25 -6 27 -13 6z"/>
<path d="M684 68 c-4 -7 -4 -10 1 -6 4 4 14 0 22 -10 13 -15 13 -15 3 6 -12
25 -16 27 -26 10z"/>
<path d="M731 58 c0 -13 3 -17 6 -10 2 6 10 9 16 5 7 -4 6 1 -2 10 -18 22 -21
21 -20 -5z"/>
<path d="M795 69 c-4 -6 -5 -12 -2 -15 2 -3 7 2 10 11 7 17 1 20 -8 4z"/>
<path d="M860 76 c0 -2 12 -12 28 -21 l27 -18 -19 21 c-17 20 -36 29 -36 18z"/>
<path d="M924 69 c-3 -6 -2 -15 3 -20 5 -5 9 -1 9 11 0 23 -2 24 -12 9z"/>
<path d="M1000 69 c0 -5 5 -7 10 -4 6 3 10 8 10 11 0 2 -4 4 -10 4 -5 0 -10
-5 -10 -11z"/>
<path d="M1122 60 c0 -14 2 -19 5 -12 2 6 2 18 0 25 -3 6 -5 1 -5 -13z"/>
<path d="M1230 69 c0 -5 5 -7 10 -4 6 3 10 8 10 11 0 2 -4 4 -10 4 -5 0 -10
-5 -10 -11z"/>
</g>
</svg>
