<?xml version="1.0" encoding="UTF-8"?>
<!-- Generator: visioncortex VTracer 0.6.3 -->
<svg version="1.1" xmlns="http://www.w3.org/2000/svg" width="1280" height="1207">
<path d="M0 0 C422.4 0 844.8 0 1280 0 C1280 398.31 1280 796.62 1280 1207 C857.6 1207 435.2 1207 0 1207 C0 808.69 0 410.38 0 0 Z " fill="#ADAFB2" transform="translate(0,0)"/>
<path d="M0 0 C216.48 0 432.96 0 656 0 C656 398.31 656 796.62 656 1207 C651.71 1207 647.42 1207 643 1207 C642.74 1205.78 642.49 1204.57 642.22 1203.31 C635.86 1173.88 627.3 1144.73 616.69 1116.54 C615.28 1112.78 613.94 1108.99 612.63 1105.19 C610.12 1097.93 607.39 1090.91 604 1084 C603.7 1083.39 603.41 1082.79 603.1 1082.16 C601.08 1078.04 599.03 1073.94 596.94 1069.85 C596.13 1068.25 595.31 1066.63 594.5 1065.02 C590.4 1057.14 585.3 1050.1 580 1043 C579.27 1041.93 579.27 1041.93 578.52 1040.84 C574.35 1035.2 568.11 1032.29 562.04 1029.08 C560.01 1028 558 1026.9 555.99 1025.8 C535.55 1014.67 514.25 1004.48 492.35 996.61 C488.55 995.24 484.89 993.64 481.22 991.98 C477.62 990.39 473.94 989.01 470.25 987.62 C468.39 986.92 466.53 986.22 464.68 985.52 C463.63 985.13 462.59 984.74 461.51 984.33 C458.29 983.11 455.08 981.88 451.86 980.64 C431.83 972.91 411.69 965.7 391.27 959.05 C385.42 957.14 379.59 955.19 373.76 953.22 C365.83 950.55 357.92 947.91 349.88 945.62 C323.4 938.08 296.15 929.55 272.03 916.17 C268.68 914.33 265.28 912.73 261.79 911.19 C250.76 906.28 240.96 899.77 231 893 C229.54 892.02 228.09 891.05 226.63 890.07 C219.19 885.05 211.96 879.82 204.9 874.28 C203.09 872.86 201.28 871.45 199.44 870.07 C197.26 868.41 195.12 866.73 193 865 C192.35 864.47 191.7 863.95 191.04 863.4 C181.81 855.15 181.09 842.97 180.25 831.31 C180.19 830.53 180.13 829.75 180.07 828.94 C178.67 810.19 178.71 791.38 178.69 772.58 C178.69 770.13 178.68 767.68 178.68 765.23 C178.67 761.31 178.68 757.39 178.69 753.48 C178.7 752.02 178.7 750.56 178.7 749.1 C178.69 729.87 178.69 729.87 183.62 722.12 C184.15 721.29 184.68 720.46 185.23 719.6 C187.73 715.93 190.36 712.35 193 708.78 C195.56 705.23 197.91 701.57 200.22 697.85 C201.43 695.91 202.69 693.99 203.97 692.09 C221.09 666.08 224.7 633.39 226.27 603.04 C226.37 601.19 226.37 601.19 226.47 599.31 C226.53 598.22 226.58 597.12 226.64 595.99 C227.01 592.95 227.56 590.7 229 588 C231.95 587.02 233.52 586.98 236.56 587.12 C243.92 587.15 250.46 586.06 255.88 580.75 C259.62 575.99 260.78 570.53 262.1 564.73 C262.88 561.5 263.84 558.58 265.06 555.5 C268.79 545.48 270.02 535 271.38 524.46 C272.97 512.21 274.85 500.64 279 489 C279.26 488.26 279.52 487.52 279.79 486.75 C282.02 480.44 282.02 480.44 283.03 477.7 C288.48 462.85 288.72 441.51 282 427 C277.91 419.51 277.91 419.51 271 415 C268.18 414.76 268.18 414.76 265.25 414.88 C264.27 414.89 263.28 414.91 262.27 414.93 C261.52 414.95 260.77 414.98 260 415 C258.54 411.11 259.48 408.28 260.55 404.36 C260.72 403.71 260.89 403.06 261.07 402.4 C261.62 400.32 262.18 398.26 262.75 396.19 C266.78 381.31 270.13 366.57 271.62 351.19 C271.75 349.92 271.88 348.64 272.01 347.33 C273.02 336.74 273.33 326.16 273.54 315.52 C273.82 302.22 275.06 289.17 277 276 C277.1 275.28 277.21 274.56 277.32 273.82 C277.59 271.98 277.86 270.15 278.12 268.31 C281.35 245.97 280.51 223.28 278.28 200.88 C278 198 277.74 195.11 277.49 192.22 C276.79 184.29 276.09 176.44 274.49 168.63 C273.9 165.43 273.55 162.23 273.19 159 C271.98 149.76 269.66 140.92 267 132 C266.8 131.31 266.6 130.62 266.39 129.9 C261.09 112.11 249.23 93.76 232.86 84.45 C228.34 82.16 223.69 80.21 219 78.3 C216 77 216 77 213 75 C214.22 70.25 216.54 68.64 220.54 66.21 C221.02 65.81 221.5 65.41 222 65 C222 64.01 222 63.02 222 62 C208.85 57.64 196.89 57.35 183.25 59.38 C182.33 59.5 181.41 59.63 180.46 59.76 C175.23 60.51 175.23 60.51 170.23 62.16 C167.23 63.29 165.08 62.72 162 62 C161.77 61.02 161.54 60.04 161.3 59.04 C158.38 47.08 155.04 38.71 145 31 C144.43 30.5 143.85 30.01 143.26 29.5 C140.01 27.34 136.55 26.15 132.88 24.88 C132.12 24.61 131.36 24.34 130.57 24.06 C125.67 22.39 121.2 21.53 116.02 21.25 C112.51 20.82 110.54 19.36 108 17 C106.7 14.69 105.87 12.53 105 10 C100.45 10.9 96.15 11.86 91.88 13.69 C87.98 15.22 85.09 15.14 81 14 C80.01 12.52 80.01 12.52 79 11 C76.25 9.99 73.74 9.9 70.84 9.97 C70.02 9.98 69.21 10 68.38 10.01 C67.5 10.04 66.63 10.06 65.73 10.08 C63.85 10.11 61.97 10.13 60.1 10.16 C57.16 10.2 54.22 10.25 51.28 10.32 C38.61 10.62 28.8 9.68 17 5 C13.88 4.11 10.74 3.38 7.56 2.69 C6.82 2.52 6.08 2.35 5.31 2.18 C3.54 1.78 1.77 1.39 0 1 C0 0.67 0 0.34 0 0 Z " fill="#FCFDFF" transform="translate(624,0)"/>
<path d="M0 0 C193.71 0 387.42 0 587 0 C587 0.33 587 0.66 587 1 C585.87 1.29 585.87 1.29 584.72 1.59 C573.4 4.78 560.08 9.1 552.46 18.55 C548.71 22.27 544.2 22.21 539.19 22.31 C525.6 22.9 504.52 24.44 494 34 C493.2 36.36 492.95 38.51 492.68 40.98 C492 43 492 43 490.13 44.11 C488.3 44.7 486.45 45.26 484.59 45.8 C468.49 51.19 454.64 61.51 442.3 72.88 C440.22 74.8 438.09 76.66 435.94 78.5 C434.62 79.66 433.31 80.83 432 82 C431.33 82.59 430.65 83.19 429.96 83.8 C423.98 89.4 419.38 95.78 414.78 102.53 C411.33 107.5 407.71 111.23 403 115 C384.9 131.37 379.87 170.65 376.52 193.72 C376 196.99 375.33 200.2 374.62 203.44 C370.86 221.94 368.3 241.11 368 260 C367.98 261.06 367.96 262.11 367.94 263.2 C367.64 281.42 368.07 299.61 368.69 317.82 C368.77 320.11 368.85 322.41 368.92 324.7 C369.54 344.15 371.48 363.06 376 382 C376.34 383.46 376.34 383.46 376.68 384.96 C378.26 391.58 380.21 398.04 382.37 404.48 C383.56 408.1 384.27 411.19 384 415 C383.28 414.95 382.55 414.91 381.8 414.86 C375.63 414.63 371.79 414.67 367 419 C363.61 422.78 361.63 426.69 359.81 431.38 C359.55 432.01 359.29 432.64 359.03 433.3 C357.35 437.54 356.46 441.47 356 446 C355.93 446.64 355.87 447.28 355.8 447.94 C354.59 461.89 358.17 473.3 363.01 486.26 C365.54 493.25 367.46 500.37 369 507.62 C369.17 508.43 369.35 509.24 369.53 510.08 C370.63 515.45 371.32 520.77 371.84 526.23 C372.97 537.71 375.48 548.46 378.75 559.5 C378.95 560.21 379.16 560.93 379.37 561.66 C382.18 571.38 385.34 578.57 393.5 584.95 C396.73 586.31 399.57 586.56 403.06 586.75 C404.27 586.83 405.48 586.9 406.72 586.98 C409.44 587 411.45 586.84 414 586 C415.31 588.62 415.23 590.7 415.36 593.63 C417.75 640.17 428.05 679.23 455.98 717.15 C461.5 724.77 463.47 731.1 463.69 740.44 C463.74 741.96 463.74 741.96 463.79 743.51 C463.88 746.67 463.94 749.84 464 753 C464.02 754.39 464.02 754.39 464.05 755.8 C464.15 762.87 464.1 769.93 464 777 C463.99 777.67 463.98 778.34 463.97 779.02 C463.73 797.2 463.17 815.35 461.87 833.48 C461.75 835.15 461.63 836.81 461.53 838.48 C461.37 840.8 461.2 843.12 461.01 845.44 C460.95 846.46 460.95 846.46 460.89 847.5 C460.46 852.31 458.88 855.17 456 859 C455.55 859.87 455.09 860.73 454.62 861.62 C452.54 864.67 450.09 865.98 447 868 C444.95 869.55 442.9 871.11 440.88 872.69 C439.72 873.58 438.57 874.47 437.42 875.36 C436.84 875.8 436.27 876.25 435.68 876.71 C422.96 886.52 409.95 896.01 396 904 C395.01 904.6 394.02 905.21 393 905.83 C365.61 922.22 335.12 933.13 304.7 942.24 C301.44 943.22 298.23 944.25 295.05 945.48 C289.48 947.64 283.73 949.28 278 951 C262.25 955.75 246.63 960.71 231.12 966.19 C230.43 966.43 229.73 966.68 229.01 966.93 C221.11 969.72 213.29 972.65 205.53 975.8 C197.78 978.93 189.89 981.63 182.01 984.39 C176.25 986.42 170.6 988.53 165.04 991.08 C162.33 992.3 159.56 993.36 156.77 994.43 C146.44 998.43 136.34 1002.92 126.25 1007.5 C125.56 1007.81 124.88 1008.12 124.17 1008.44 C115.18 1012.52 106.3 1016.78 97.48 1021.24 C93.71 1023.15 89.91 1025.03 86.11 1026.89 C83.68 1028.17 81.35 1029.57 79 1031 C77.69 1031.78 77.69 1031.78 76.35 1032.58 C60.45 1042.33 52.8 1056.71 44.93 1073.1 C44.08 1074.83 43.19 1076.54 42.3 1078.25 C36.26 1089.77 31.61 1101.85 27 1114 C26.53 1115.22 26.07 1116.44 25.59 1117.7 C17.19 1139.89 10.69 1162.53 4.52 1185.43 C4.28 1186.32 4.04 1187.21 3.79 1188.14 C2.74 1192.07 1.72 1195.99 1 1200 C0.67 1200 0.34 1200 0 1200 C0 804 0 408 0 0 Z " fill="#FCFDFF" transform="translate(0,0)"/>
</svg>
